<?xml version="1.0" encoding="UTF-8"?>
<svg xmlns="http://www.w3.org/2000/svg" viewBox="0 0 600 600" width="600" height="600">
  <defs>
    <linearGradient id="g_yoga" x1="0%" y1="0%" x2="100%" y2="100%">
      <stop offset="0%" stop-color="#a855f7"/>
      <stop offset="100%" stop-color="#6d28d9"/>
    </linearGradient>
    <linearGradient id="g_matroll" x1="0%" y1="0%" x2="0%" y2="100%">
      <stop offset="0%" stop-color="#fbbf24"/>
      <stop offset="100%" stop-color="#d97706"/>
    </linearGradient>
    <filter id="shadow_yoga" x="-20%" y="-20%" width="140%" height="140%">
      <feGaussianBlur in="SourceAlpha" stdDeviation="10"/>
      <feOffset dx="0" dy="14" result="offsetblur"/>
      <feComponentTransfer><feFuncA type="linear" slope="0.22"/></feComponentTransfer>
      <feMerge><feMergeNode/><feMergeNode in="SourceGraphic"/></feMerge>
    </filter>
  </defs>
  <rect width="600" height="600" fill="url(#g_yoga)"/>
  <circle cx="500" cy="110" r="120" fill="rgba(255,255,255,0.10)"/>
  <circle cx="80"  cy="520" r="80"  fill="rgba(0,0,0,0.08)"/>
  <g filter="url(#shadow_yoga)" transform="translate(60,180)">
    <rect x="0"   y="60" width="480" height="140" rx="18" fill="url(#g_matroll)" stroke="#78350f" stroke-width="4"/>
    <rect x="0"   y="60" width="60"  height="140" rx="18" fill="#f59e0b"/>
    <rect x="420" y="60" width="60"  height="140" rx="18" fill="#f59e0b"/>
    <line x1="120" y1="80" x2="120" y2="180" stroke="#78350f" stroke-width="3" opacity="0.6"/>
    <line x1="240" y1="80" x2="240" y2="180" stroke="#78350f" stroke-width="3" opacity="0.6"/>
    <line x1="360" y1="80" x2="360" y2="180" stroke="#78350f" stroke-width="3" opacity="0.6"/>
    <circle cx="240" cy="130" r="34" fill="none" stroke="white" stroke-width="6"/>
    <path d="M240 108 L240 152 M218 130 L262 130" stroke="white" stroke-width="6" stroke-linecap="round"/>
  </g>
  <text x="300" y="504" font-family="Inter, sans-serif" font-size="27" font-weight="700"
        fill="rgba(255,255,255,0.9)" text-anchor="middle" letter-spacing="4">YOGA MAT</text>
</svg>
