<?xml version="1.0" encoding="UTF-8"?>
<svg xmlns="http://www.w3.org/2000/svg" viewBox="0 0 400 400" width="400" height="400">
  <defs>
    <linearGradient id="bg_green" x1="0%" y1="0%" x2="100%" y2="100%">
      <stop offset="0%" stop-color="#D1FAE5"/><stop offset="100%" stop-color="#34D399"/>
    </linearGradient>
    <linearGradient id="coat_green" x1="0%" y1="0%" x2="0%" y2="100%">
      <stop offset="0%" stop-color="#F8FAFC"/><stop offset="100%" stop-color="#E2E8F0"/>
    </linearGradient>
  </defs>
  <rect width="400" height="400" fill="url(#bg_green)"/>
  <circle cx="200" cy="150" r="72" fill="#CBA57B"/>
  <path d="M168 116 Q200 84 232 116 L232 128 Q220 132 200 132 Q180 132 168 128 Z" fill="#0F172A"/>
  <path d="M156 130 Q158 108 174 118 Q182 122 178 132" fill="none" stroke="#0F172A" stroke-width="3" stroke-linecap="round"/>
  <path d="M244 130 Q242 108 226 118 Q218 122 222 132" fill="none" stroke="#0F172A" stroke-width="3" stroke-linecap="round"/>
  <ellipse cx="184" cy="154" rx="4" ry="6" fill="#0F172A"/>
  <ellipse cx="216" cy="154" rx="4" ry="6" fill="#0F172A"/>
  <path d="M186 180 Q200 190 214 180" fill="none" stroke="#7C2D12" stroke-width="3" stroke-linecap="round"/>
  <rect x="182" y="150" width="36" height="4" fill="#0F172A"/>
  <circle cx="180" cy="150" r="12" fill="none" stroke="#0F172A" stroke-width="2"/>
  <circle cx="220" cy="150" r="12" fill="none" stroke="#0F172A" stroke-width="2"/>
  <path d="M120 400 Q120 260 200 240 Q280 260 280 400 Z" fill="url(#coat_green)" stroke="#0F172A" stroke-width="2"/>
  <path d="M200 240 L180 400 L200 300 L220 400 Z" fill="#0F172A" opacity="0.06"/>
  <path d="M170 244 Q200 260 230 244" fill="none" stroke="#0F172A" stroke-width="2"/>
  <circle cx="248" cy="284" r="6" fill="#0F172A"/>
  <circle cx="248" cy="310" r="6" fill="#0F172A"/>
  <path d="M155 260 Q140 320 158 360" fill="none" stroke="#059669" stroke-width="6" stroke-linecap="round"/>
  <path d="M245 260 Q260 320 242 360" fill="none" stroke="#059669" stroke-width="6" stroke-linecap="round"/>
  <circle cx="242" cy="360" r="12" fill="#059669"/>
  <circle cx="158" cy="360" r="12" fill="#059669"/>
  <circle cx="200" cy="380" r="18" fill="#059669"/>
  <circle cx="200" cy="380" r="9" fill="#F1F5F9"/>
</svg>
